<?xml version="1.0" encoding="UTF-8" standalone="no"?>
<svg
   viewBox="0 0 1296 1296"
   id="vector"
   version="1.1"
   sodipodi:docname="vector.svg"
   width="1296"
   height="1296"
   xmlns:inkscape="http://www.inkscape.org/namespaces/inkscape"
   xmlns:sodipodi="http://sodipodi.sourceforge.net/DTD/sodipodi-0.dtd"
   xmlns="http://www.w3.org/2000/svg"
   xmlns:svg="http://www.w3.org/2000/svg">
  <defs
     id="defs98" />
  <sodipodi:namedview
     id="namedview96"
     pagecolor="#ffffff"
     bordercolor="#666666"
     borderopacity="1.0"
     inkscape:showpageshadow="2"
     inkscape:pageopacity="0.0"
     inkscape:pagecheckerboard="0"
     inkscape:deskcolor="#d1d1d1"
     showgrid="false" />
  <path
     id="path"
     d="m 9.2473961,15.236194 c -0.9712329,0 -1.6706591,0.4155 -2.2714039,1.199759 -0.2995069,-0.770409 -0.9418019,-1.199759 -1.7849224,-1.199759 -0.9279509,0 -1.6135279,0.386069 -2.2004217,1.128777 L 2.8348346,15.480301 H 0.86293758 v 7.582888 H 3.1204915 v -5.183372 c 0.327207,-0.628445 0.6855761,-0.986814 1.1564775,-0.986814 0.342788,0 0.6422949,0.214676 0.6422949,1.014514 v 5.155672 h 2.2575539 v -5.183372 c 0.327206,-0.628445 0.6699941,-0.986814 1.1564765,-0.986814 0.3427881,0 0.642295,0.214676 0.642295,1.014514 v 5.155672 h 2.2575547 v -5.541741 c 0,-1.442133 -0.815421,-2.285254 -1.9857479,-2.285254 z"
     fill="#89040a"
     style="stroke-width:1.73126" />
  <path
     id="path_1"
     d="m 19.54489,19.122857 c 0,-2.456648 -1.327871,-3.884932 -3.498863,-3.884932 -2.299104,0 -3.542144,1.798772 -3.542144,4.070176 0,2.371817 1.286321,3.999195 3.813951,3.999195 1.227458,0 2.198691,-0.457051 2.95698,-1.056065 l -0.929683,-1.256889 c -0.656145,0.45705 -1.199758,0.669995 -1.812621,0.669995 -0.929684,0 -1.571978,-0.370489 -1.713942,-1.727791 h 4.684772 c 0.0277,-0.228525 0.04155,-0.571313 0.04155,-0.813689 z m -2.212542,-0.543614 h -2.529361 c 0.114263,-1.371152 0.543614,-1.842052 1.300171,-1.842052 0.900252,0 1.213609,0.715007 1.22919,1.743371 z"
     fill="#89040a"
     style="stroke-width:1.73126" />
  <path
     id="path_2"
     d="m 27.300903,14.251111 c -0.914101,0.543614 -1.885334,1.028364 -3.569843,0.985083 -1.985747,0 -3.329201,1.057795 -3.329201,2.771736 0,0.985083 0.386071,1.656809 1.357303,2.170991 -0.541882,0.342788 -0.900251,0.900252 -0.900251,1.455984 0,0.81542 0.671726,1.500997 2.328535,1.500997 h 1.101076 c 0.756559,0 1.083766,0.299506 1.083766,0.742707 0,0.484751 -0.313357,0.85697 -1.641228,0.85697 -1.371154,0 -1.656809,-0.285656 -1.656809,-0.943533 h -2.02903 c 0,1.499266 0.756558,2.442798 3.628707,2.442798 2.59861,0 3.969763,-0.957382 3.969763,-2.513779 0,-1.27074 -1.128777,-2.200423 -2.899848,-2.200423 h -1.142628 c -0.727126,0 -0.827538,-0.228525 -0.827538,-0.45705 0,-0.171395 0.08483,-0.342788 0.242374,-0.42762 0.271807,0.05713 0.557464,0.08483 0.870821,0.08483 1.971897,0 3.185506,-1.069915 3.185506,-2.54148 0,-0.985083 -0.470902,-1.542547 -1.428285,-1.956316 0.957383,0 1.65681,-0.08656 2.184842,-0.301238 z M 23.78646,16.72161 c 0.758288,0 1.142626,0.386069 1.142626,1.229188 0,0.870821 -0.398188,1.314022 -1.142626,1.314022 -0.685576,0 -1.142628,-0.457051 -1.142628,-1.286322 0,-0.784257 0.443202,-1.256888 1.142628,-1.256888 z"
     fill="#89040a"
     style="stroke-width:1.73126" />
  <path
     id="path_3"
     d="m 34.741828,20.864497 v -2.941398 c 0,-1.757222 -0.941801,-2.685174 -3.142223,-2.685174 -0.856971,0 -1.899185,0.199095 -2.856568,0.557464 l 0.514182,1.485415 c 0.758289,-0.257957 1.500996,-0.39992 1.985747,-0.39992 0.927952,0 1.286321,0.270076 1.286321,1.170328 v 0.328938 h -0.772139 c -2.299104,0 -3.555994,0.900251 -3.555994,2.55706 0,1.385003 0.955652,2.370086 2.470499,2.370086 0.900251,0 1.743371,-0.299507 2.285254,-1.128777 0.356638,0.742707 0.943533,1.014514 1.828203,1.085495 l 0.470901,-1.469833 c -0.356638,-0.129844 -0.514183,-0.342789 -0.514183,-0.927952 z m -3.412299,0.829271 c -0.557464,0 -0.886402,-0.356638 -0.886402,-0.957383 0,-0.756558 0.500333,-1.113196 1.528697,-1.113196 h 0.557463 v 1.355571 c -0.271806,0.443201 -0.685576,0.715008 -1.199758,0.715008 z"
     fill="#89040a"
     style="stroke-width:1.73126" />
</svg>
