<?xml version="1.0" encoding="UTF-8" standalone="no"?>
<svg
   viewBox="0 0 36 36"
   id="vector"
   version="1.1"
   sodipodi:docname="type_giga.svg"
   inkscape:version="1.2.2 (b0a8486541, 2022-12-01)"
   xmlns:inkscape="http://www.inkscape.org/namespaces/inkscape"
   xmlns:sodipodi="http://sodipodi.sourceforge.net/DTD/sodipodi-0.dtd"
   xmlns="http://www.w3.org/2000/svg"
   xmlns:svg="http://www.w3.org/2000/svg">
  <defs
     id="defs9" />
  <sodipodi:namedview
     id="namedview7"
     pagecolor="#ffffff"
     bordercolor="#666666"
     borderopacity="1.0"
     inkscape:showpageshadow="2"
     inkscape:pageopacity="0.0"
     inkscape:pagecheckerboard="0"
     inkscape:deskcolor="#d1d1d1"
     showgrid="false"
     inkscape:zoom="6.5555556"
     inkscape:cx="18"
     inkscape:cy="18"
     inkscape:window-width="1920"
     inkscape:window-height="1052"
     inkscape:window-x="0"
     inkscape:window-y="0"
     inkscape:window-maximized="1"
     inkscape:current-layer="vector" />
  <path
     id="path"
     d="m 10.037625,12.047104 c -1.183251,0.703676 -2.4404567,1.331158 -4.6209558,1.275133 -2.570435,0 -4.3094562,1.369255 -4.3094562,3.587852 0,1.275133 0.499744,2.144644 1.7569486,2.810223 -0.7014348,0.443719 -1.1653229,1.165323 -1.1653229,1.884686 0,1.055515 0.86951,1.942954 3.0141543,1.942954 h 1.4230395 c 0.9815606,0 1.4073525,0.387694 1.4073525,0.961391 0,0.627482 -0.4078634,1.109299 -2.1267158,1.109299 -1.7748781,0 -2.1446442,-0.369766 -2.1446442,-1.221349 H 0.64556521 c 0,1.940712 0.98156059,3.162061 4.69715079,3.162061 3.3637515,0 5.138629,-1.239277 5.138629,-3.253942 0,-1.644899 -1.4611372,-2.84832 -3.7536868,-2.84832 H 5.2485929 c -0.9412229,0 -1.0712009,-0.295813 -1.0712009,-0.591626 0,-0.22186 0.1098091,-0.443719 0.3137413,-0.553528 0.3518376,0.07395 0.7216037,0.109809 1.1272267,0.109809 2.5525066,0 4.1234525,-1.384942 4.1234525,-3.289799 0,-1.275133 -0.6095542,-1.996736 -1.8488314,-2.532337 1.2392772,0 2.1446439,-0.112051 2.8281519,-0.389935 z m -4.5470026,3.197917 c 0.9793203,0 1.4790643,0.499745 1.4790643,1.591115 0,1.127226 -0.5176725,1.700925 -1.4790643,1.700925 -0.88968,0 -1.4790653,-0.591627 -1.4790653,-1.66507 0,-1.015176 0.5714569,-1.62697 1.4790653,-1.62697 z"
     fill="#90040b"
     style="stroke-width:2.24101" />
  <path
     id="path_1"
     d="m 13.309495,8.461493 c -1.017418,0 -1.718852,0.7193633 -1.718852,1.662828 0,0.943463 0.701434,1.665068 1.718852,1.665068 1.017418,0 1.739021,-0.721605 1.739021,-1.665068 0,-0.9434647 -0.721603,-1.662828 -1.739021,-1.662828 z m 1.479064,5.176726 h -2.920031 v 9.815611 h 2.920031 z"
     fill="#90040b"
     style="stroke-width:2.24101" />
  <path
     id="path_2"
     d="m 25.437824,12.047104 c -1.183251,0.703676 -2.440456,1.331158 -4.620956,1.275133 -2.570435,0 -4.307215,1.369255 -4.307215,3.587852 0,1.275133 0.497504,2.144644 1.754708,2.810223 -0.701434,0.443719 -1.163082,1.165323 -1.163082,1.884686 0,1.055515 0.867269,1.942954 3.011913,1.942954 h 1.425281 c 0.97932,0 1.405111,0.387694 1.405111,0.961391 0,0.627482 -0.407864,1.109299 -2.126716,1.109299 -1.774877,0 -2.144643,-0.369766 -2.144643,-1.221349 h -2.62646 c 0,1.940712 0.981561,3.162061 4.69715,3.162061 3.363751,0 5.138628,-1.239277 5.138628,-3.253942 0,-1.644899 -1.458895,-2.84832 -3.751445,-2.84832 h -1.479064 c -0.943464,0 -1.073442,-0.295813 -1.073442,-0.591626 0,-0.22186 0.112049,-0.443719 0.31374,-0.553528 0.351839,0.07395 0.721605,0.109809 1.129468,0.109809 2.550265,0 4.121211,-1.384942 4.121211,-3.289799 0,-1.275133 -0.609553,-1.996736 -1.84883,-2.532337 1.239277,0 2.144643,-0.112051 2.830392,-0.389935 z m -4.547003,3.197917 c 0.97932,0 1.479065,0.499745 1.479065,1.591115 0,1.127226 -0.517673,1.700925 -1.479065,1.700925 -0.887438,0 -1.479064,-0.591627 -1.479064,-1.66507 0,-1.015176 0.573697,-1.62697 1.479064,-1.62697 z"
     fill="#90040b"
     style="stroke-width:2.24101" />
  <path
     id="path_3"
     d="M 35.071913,20.607751 V 16.80028 c 0,-2.274622 -1.221349,-3.475802 -4.067427,-3.475802 -1.11154,0 -2.460626,0.257716 -3.697662,0.721604 l 0.663338,1.922784 c 0.981561,-0.33391 1.942953,-0.517673 2.570435,-0.517673 1.20118,0 1.665068,0.349598 1.665068,1.514922 v 0.42579 h -0.999489 c -2.976057,0 -4.603028,1.165324 -4.603028,3.309968 0,1.792805 1.239277,3.067938 3.197917,3.067938 1.165324,0 2.256693,-0.387694 2.958129,-1.461137 0.461647,0.961392 1.221349,1.313231 2.366503,1.405113 l 0.609554,-1.902616 c -0.461648,-0.168075 -0.663338,-0.443719 -0.663338,-1.201179 z m -4.419266,1.073442 c -0.721603,0 -1.147395,-0.461648 -1.147395,-1.239277 0,-0.979321 0.647651,-1.440967 1.978809,-1.440967 h 0.721604 v 1.754708 c -0.351838,0.573697 -0.887439,0.925536 -1.553018,0.925536 z"
     fill="#90040b"
     style="stroke-width:2.24101" />
</svg>
